<svg xmlns="http://www.w3.org/2000/svg" viewBox="0 0 512 512" width="200" height="200">
  <defs>
    <linearGradient id="grad1" x1="0%" y1="0%" x2="100%" y2="100%">
      <stop offset="0%" style="stop-color:#4facfe;stop-opacity:1" />
      <stop offset="100%" style="stop-color:#00f2fe;stop-opacity:1" />
    </linearGradient>
    <filter id="shadow">
        <feDropShadow dx="3" dy="3" stdDeviation="5" flood-color="#000000" flood-opacity="0.3"/>
    </filter>
  </defs>
  
  <!-- Main Background Shape (Rounded Rect) -->
  <rect x="30" y="30" width="452" height="452" rx="80" ry="80" fill="url(#grad1)" filter="url(#shadow)" />
  
  <!-- Film Strip edges -->
  <path d="M100,30 V482" stroke="white" stroke-width="0" fill="none"/>
  <rect x="55" y="60" width="30" height="40" rx="5" fill="rgba(255,255,255,0.4)" />
  <rect x="55" y="120" width="30" height="40" rx="5" fill="rgba(255,255,255,0.4)" />
  <rect x="55" y="180" width="30" height="40" rx="5" fill="rgba(255,255,255,0.4)" />
  <rect x="55" y="240" width="30" height="40" rx="5" fill="rgba(255,255,255,0.4)" />
  <rect x="55" y="300" width="30" height="40" rx="5" fill="rgba(255,255,255,0.4)" />
  <rect x="55" y="360" width="30" height="40" rx="5" fill="rgba(255,255,255,0.4)" />
  <rect x="55" y="420" width="30" height="40" rx="5" fill="rgba(255,255,255,0.4)" />

  <rect x="427" y="60" width="30" height="40" rx="5" fill="rgba(255,255,255,0.4)" />
  <rect x="427" y="120" width="30" height="40" rx="5" fill="rgba(255,255,255,0.4)" />
  <rect x="427" y="180" width="30" height="40" rx="5" fill="rgba(255,255,255,0.4)" />
  <rect x="427" y="240" width="30" height="40" rx="5" fill="rgba(255,255,255,0.4)" />
  <rect x="427" y="300" width="30" height="40" rx="5" fill="rgba(255,255,255,0.4)" />
  <rect x="427" y="360" width="30" height="40" rx="5" fill="rgba(255,255,255,0.4)" />
  <rect x="427" y="420" width="30" height="40" rx="5" fill="rgba(255,255,255,0.4)" />

  <!-- Center Gear Icon -->
  <g transform="translate(256, 256)">
      <circle cx="0" cy="0" r="110" fill="white" />
      <path d="M-40,-130 L40,-130 L60,-90 L90,-80 L120,-110 L160,-70 L130,-40 L140,0 L180,20 L180,80 L140,100 L130,140 L160,170 L120,210 L90,180 L60,190 L40,230 L-40,230 L-60,190 L-90,180 L-120,210 L-160,170 L-130,140 L-140,100 L-180,80 L-180,20 L-140,-10 L-130,-50 L-160,-80 L-120,-120 L-90,-90 L-60,-100 Z" 
            fill="white" transform="scale(0.6) rotate(15)" />
      
      <!-- Inner Play Button -->
      <circle cx="0" cy="0" r="70" fill="#4facfe" />
      <path d="M-20,-35 L45,0 L-20,35 Z" fill="white" />
  </g>
</svg>
